name rise44.9368peak50.754fall52.0217.mot
datacolumns 19
datarows 36
range 18.31327100000000 18.37159700000000
endheader
time	ground_force1_vx	ground_force1_vy	ground_force1_vz	ground_force1_px	ground_force1_py	ground_force1_pz	ground_force2_vx	ground_force2_vy	ground_force2_vz	ground_force2_px	ground_force2_py	ground_force2_pz	ground_torque1_x	ground_torque1_y	ground_torque1_z	ground_torque2_x	ground_torque2_y	ground_torque2_z	
18.31327100000000	48.39668000000000	743.94943699999999	64.96951000000000	0.30040900000000	0.00000000000000	0.16989800000000	0.00000000000000	0.00000000000000	0.00000000000000	0.00000000000000	0.00000000000000	0.00000000000000	0.00000000000000	22.54676600000000	0.00000000000000	0.00000000000000	0.00000000000000	0.00000000000000	
18.31493200000000	47.56188200000000	744.68020300000001	65.04176800000000	0.29895200000000	0.00000000000000	0.16997700000000	0.00000000000000	0.00000000000000	0.00000000000000	0.00000000000000	0.00000000000000	0.00000000000000	0.00000000000000	22.68525500000000	0.00000000000000	0.00000000000000	0.00000000000000	0.00000000000000	
18.31659900000000	46.74824000000000	745.37378400000000	65.11648900000000	0.29754600000000	0.00000000000000	0.17005600000000	0.00000000000000	0.00000000000000	0.00000000000000	0.00000000000000	0.00000000000000	0.00000000000000	0.00000000000000	22.82257400000000	0.00000000000000	0.00000000000000	0.00000000000000	0.00000000000000	
18.31827200000000	45.95622900000000	746.03038300000003	65.19342899999999	0.29619100000000	0.00000000000000	0.17013400000000	0.00000000000000	0.00000000000000	0.00000000000000	0.00000000000000	0.00000000000000	0.00000000000000	0.00000000000000	22.95852500000000	0.00000000000000	0.00000000000000	0.00000000000000	0.00000000000000	
18.31993600000000	45.18620000000000	746.65012300000001	65.27227999999999	0.29488800000000	0.00000000000000	0.17021000000000	0.00000000000000	0.00000000000000	0.00000000000000	0.00000000000000	0.00000000000000	0.00000000000000	0.00000000000000	23.09289400000000	0.00000000000000	0.00000000000000	0.00000000000000	0.00000000000000	
18.32160500000000	44.43838700000000	747.23306000000002	65.35267200000000	0.29363700000000	0.00000000000000	0.17028500000000	0.00000000000000	0.00000000000000	0.00000000000000	0.00000000000000	0.00000000000000	0.00000000000000	0.00000000000000	23.22545000000000	0.00000000000000	0.00000000000000	0.00000000000000	0.00000000000000	
18.32327000000000	43.71290300000000	747.77919199999997	65.43418200000001	0.29243800000000	0.00000000000000	0.17035800000000	0.00000000000000	0.00000000000000	0.00000000000000	0.00000000000000	0.00000000000000	0.00000000000000	0.00000000000000	23.35595100000000	0.00000000000000	0.00000000000000	0.00000000000000	0.00000000000000	
18.32493400000000	43.00975300000000	748.28847399999995	65.51633400000000	0.29129200000000	0.00000000000000	0.17043000000000	0.00000000000000	0.00000000000000	0.00000000000000	0.00000000000000	0.00000000000000	0.00000000000000	0.00000000000000	23.48414000000000	0.00000000000000	0.00000000000000	0.00000000000000	0.00000000000000	
18.32659800000000	42.32883000000000	748.76082699999995	65.59860900000000	0.29019700000000	0.00000000000000	0.17050000000000	0.00000000000000	0.00000000000000	0.00000000000000	0.00000000000000	0.00000000000000	0.00000000000000	0.00000000000000	23.60975600000000	0.00000000000000	0.00000000000000	0.00000000000000	0.00000000000000	
18.32827100000000	41.66992500000000	749.19614999999999	65.68044999999999	0.28915300000000	0.00000000000000	0.17056800000000	0.00000000000000	0.00000000000000	0.00000000000000	0.00000000000000	0.00000000000000	0.00000000000000	0.00000000000000	23.73252700000000	0.00000000000000	0.00000000000000	0.00000000000000	0.00000000000000	
18.32993900000000	41.03273100000000	749.59432900000002	65.76126600000001	0.28815900000000	0.00000000000000	0.17063400000000	0.00000000000000	0.00000000000000	0.00000000000000	0.00000000000000	0.00000000000000	0.00000000000000	0.00000000000000	23.85217900000000	0.00000000000000	0.00000000000000	0.00000000000000	0.00000000000000	
18.33160500000000	40.41684500000000	749.95525099999998	65.84044000000000	0.28721400000000	0.00000000000000	0.17069800000000	0.00000000000000	0.00000000000000	0.00000000000000	0.00000000000000	0.00000000000000	0.00000000000000	0.00000000000000	23.96843400000000	0.00000000000000	0.00000000000000	0.00000000000000	0.00000000000000	
18.33326500000000	39.82177800000000	750.27881000000002	65.91733400000000	0.28631700000000	0.00000000000000	0.17075900000000	0.00000000000000	0.00000000000000	0.00000000000000	0.00000000000000	0.00000000000000	0.00000000000000	0.00000000000000	24.08101600000000	0.00000000000000	0.00000000000000	0.00000000000000	0.00000000000000	
18.33493400000000	39.24695800000000	750.56491400000004	65.99129600000001	0.28546600000000	0.00000000000000	0.17081800000000	0.00000000000000	0.00000000000000	0.00000000000000	0.00000000000000	0.00000000000000	0.00000000000000	0.00000000000000	24.18964900000000	0.00000000000000	0.00000000000000	0.00000000000000	0.00000000000000	
18.33659700000000	38.69173800000000	750.81350199999997	66.06166300000000	0.28466000000000	0.00000000000000	0.17087500000000	0.00000000000000	0.00000000000000	0.00000000000000	0.00000000000000	0.00000000000000	0.00000000000000	0.00000000000000	24.29406000000000	0.00000000000000	0.00000000000000	0.00000000000000	0.00000000000000	
18.33826600000000	38.15540100000000	751.02454000000000	66.12777199999999	0.28389700000000	0.00000000000000	0.17092800000000	0.00000000000000	0.00000000000000	0.00000000000000	0.00000000000000	0.00000000000000	0.00000000000000	0.00000000000000	24.39398200000000	0.00000000000000	0.00000000000000	0.00000000000000	0.00000000000000	
18.33993500000000	37.63716700000000	751.19803899999999	66.18896100000001	0.28317400000000	0.00000000000000	0.17098000000000	0.00000000000000	0.00000000000000	0.00000000000000	0.00000000000000	0.00000000000000	0.00000000000000	0.00000000000000	24.48915600000000	0.00000000000000	0.00000000000000	0.00000000000000	0.00000000000000	
18.34160400000000	37.13619800000000	751.33405400000004	66.24457500000000	0.28249000000000	0.00000000000000	0.17102800000000	0.00000000000000	0.00000000000000	0.00000000000000	0.00000000000000	0.00000000000000	0.00000000000000	0.00000000000000	24.57933100000000	0.00000000000000	0.00000000000000	0.00000000000000	0.00000000000000	
18.34326900000000	36.65161000000000	751.43269199999997	66.29397500000000	0.28184200000000	0.00000000000000	0.17107400000000	0.00000000000000	0.00000000000000	0.00000000000000	0.00000000000000	0.00000000000000	0.00000000000000	0.00000000000000	24.66426600000000	0.00000000000000	0.00000000000000	0.00000000000000	0.00000000000000	
18.34493700000000	36.18247200000000	751.49411699999996	66.33653700000001	0.28122800000000	0.00000000000000	0.17111700000000	0.00000000000000	0.00000000000000	0.00000000000000	0.00000000000000	0.00000000000000	0.00000000000000	0.00000000000000	24.74373300000000	0.00000000000000	0.00000000000000	0.00000000000000	0.00000000000000	
18.34660200000000	35.72781800000000	751.51855399999999	66.37166400000000	0.28064500000000	0.00000000000000	0.17115600000000	0.00000000000000	0.00000000000000	0.00000000000000	0.00000000000000	0.00000000000000	0.00000000000000	0.00000000000000	24.81751800000000	0.00000000000000	0.00000000000000	0.00000000000000	0.00000000000000	
18.34826400000000	35.28665400000000	751.50629300000003	66.39878400000001	0.28009100000000	0.00000000000000	0.17119300000000	0.00000000000000	0.00000000000000	0.00000000000000	0.00000000000000	0.00000000000000	0.00000000000000	0.00000000000000	24.88542000000000	0.00000000000000	0.00000000000000	0.00000000000000	0.00000000000000	
18.34993800000000	34.85796100000000	751.45768999999996	66.41735900000000	0.27956200000000	0.00000000000000	0.17122700000000	0.00000000000000	0.00000000000000	0.00000000000000	0.00000000000000	0.00000000000000	0.00000000000000	0.00000000000000	24.94725500000000	0.00000000000000	0.00000000000000	0.00000000000000	0.00000000000000	
18.35159700000000	34.44070400000000	751.37316999999996	66.42688500000000	0.27905600000000	0.00000000000000	0.17125800000000	0.00000000000000	0.00000000000000	0.00000000000000	0.00000000000000	0.00000000000000	0.00000000000000	0.00000000000000	25.00285800000000	0.00000000000000	0.00000000000000	0.00000000000000	0.00000000000000	
18.35326600000000	34.03384000000000	751.25322800000004	66.42689799999999	0.27857000000000	0.00000000000000	0.17128600000000	0.00000000000000	0.00000000000000	0.00000000000000	0.00000000000000	0.00000000000000	0.00000000000000	0.00000000000000	25.05208200000000	0.00000000000000	0.00000000000000	0.00000000000000	0.00000000000000	
18.35493000000000	33.63631900000000	751.09842900000001	66.41697700000000	0.27810100000000	0.00000000000000	0.17131000000000	0.00000000000000	0.00000000000000	0.00000000000000	0.00000000000000	0.00000000000000	0.00000000000000	0.00000000000000	25.09479800000000	0.00000000000000	0.00000000000000	0.00000000000000	0.00000000000000	
18.35659700000000	33.24709700000000	750.90940999999998	66.39674400000000	0.27764500000000	0.00000000000000	0.17133200000000	0.00000000000000	0.00000000000000	0.00000000000000	0.00000000000000	0.00000000000000	0.00000000000000	0.00000000000000	25.13089900000000	0.00000000000000	0.00000000000000	0.00000000000000	0.00000000000000	
18.35826600000000	32.86513500000000	750.68687599999998	66.36587000000000	0.27720000000000	0.00000000000000	0.17135000000000	0.00000000000000	0.00000000000000	0.00000000000000	0.00000000000000	0.00000000000000	0.00000000000000	0.00000000000000	25.16030100000000	0.00000000000000	0.00000000000000	0.00000000000000	0.00000000000000	
18.35993400000000	32.48941000000000	750.43160100000000	66.32407600000001	0.27676400000000	0.00000000000000	0.17136600000000	0.00000000000000	0.00000000000000	0.00000000000000	0.00000000000000	0.00000000000000	0.00000000000000	0.00000000000000	25.18293700000000	0.00000000000000	0.00000000000000	0.00000000000000	0.00000000000000	
18.36159900000000	32.11891900000000	750.14442599999995	66.27113100000000	0.27633200000000	0.00000000000000	0.17137800000000	0.00000000000000	0.00000000000000	0.00000000000000	0.00000000000000	0.00000000000000	0.00000000000000	0.00000000000000	25.19876900000000	0.00000000000000	0.00000000000000	0.00000000000000	0.00000000000000	
18.36326800000000	31.75268100000000	749.82625599999994	66.20685700000000	0.27590100000000	0.00000000000000	0.17138800000000	0.00000000000000	0.00000000000000	0.00000000000000	0.00000000000000	0.00000000000000	0.00000000000000	0.00000000000000	25.20777800000000	0.00000000000000	0.00000000000000	0.00000000000000	0.00000000000000	
18.36493600000000	31.38974700000000	749.47805900000003	66.13112900000000	0.27547000000000	0.00000000000000	0.17139400000000	0.00000000000000	0.00000000000000	0.00000000000000	0.00000000000000	0.00000000000000	0.00000000000000	0.00000000000000	25.20996800000000	0.00000000000000	0.00000000000000	0.00000000000000	0.00000000000000	
18.36659800000000	31.02920000000000	749.10085900000001	66.04387400000000	0.27503500000000	0.00000000000000	0.17139800000000	0.00000000000000	0.00000000000000	0.00000000000000	0.00000000000000	0.00000000000000	0.00000000000000	0.00000000000000	25.20536900000000	0.00000000000000	0.00000000000000	0.00000000000000	0.00000000000000	
18.36826600000000	30.67016300000000	748.69573700000001	65.94507000000000	0.27459200000000	0.00000000000000	0.17139800000000	0.00000000000000	0.00000000000000	0.00000000000000	0.00000000000000	0.00000000000000	0.00000000000000	0.00000000000000	25.19403100000000	0.00000000000000	0.00000000000000	0.00000000000000	0.00000000000000	
18.36993900000000	30.31179800000000	748.26382599999999	65.83474800000000	0.27414000000000	0.00000000000000	0.17139600000000	0.00000000000000	0.00000000000000	0.00000000000000	0.00000000000000	0.00000000000000	0.00000000000000	0.00000000000000	25.17603000000000	0.00000000000000	0.00000000000000	0.00000000000000	0.00000000000000	
18.37159700000000	29.95331500000000	747.80630599999995	65.71298899999999	0.27367600000000	0.00000000000000	0.17139100000000	0.00000000000000	0.00000000000000	0.00000000000000	0.00000000000000	0.00000000000000	0.00000000000000	0.00000000000000	25.15146200000000	0.00000000000000	0.00000000000000	0.00000000000000	0.00000000000000	
